Coordinates
version=1
nRows=16
nColumns=38
inDegrees=no

Units are S.I. units (second, meters, Newtons, ...)
If the header above contains a line with 'inDegrees', this indicates whether rotational values are in degrees (yes) or radians (no).

endheader
time	pelvis_tilt	pelvis_list	pelvis_rotation	pelvis_tx	pelvis_ty	pelvis_tz	hip_flexion_r	hip_adduction_r	hip_rotation_r	knee_angle_r	ankle_angle_r	subtalar_angle_r	mtp_angle_r	hip_flexion_l	hip_adduction_l	hip_rotation_l	knee_angle_l	ankle_angle_l	subtalar_angle_l	mtp_angle_l	lumbar_extension	lumbar_bending	lumbar_rotation	arm_flex_r	arm_add_r	arm_rot_r	elbow_flex_r	pro_sup_r	wrist_flex_r	wrist_dev_r	arm_flex_l	arm_add_l	arm_rot_l	elbow_flex_l	pro_sup_l	wrist_flex_l	wrist_dev_l
0	-0.0718124	1.28359	-1.42236	0.749238	1.91518	0.962632	-0.400598	0.0756217	-0.218608	0.0348432	-0.219431	0	0	0.0701706	-0.179873	-0.275378	1.05421	-0.0934028	0	0	-0.464371	0.0430024	-0.211782	-0.0478637	-0.448067	0.625318	0.80115	0.853086	0	0	-0.380741	-0.300516	-0.107448	1.02229	1.5708	0	0
0.01	-0.0704068	1.28633	-1.42702	0.748643	1.90632	0.961856	-0.412304	0.0757342	-0.214389	0.027047	-0.216195	0	0	0.0844851	-0.173021	-0.284473	1.01273	-0.0987165	0	0	-0.46244	0.0402309	-0.205265	-0.0533148	-0.444756	0.608868	0.80168	0.86383	0	0	-0.381689	-0.302827	-0.104586	1.02027	1.57001	0	0
0.02	-0.0676847	1.28439	-1.43325	0.747971	1.89717	0.961165	-0.430759	0.0761415	-0.209817	0.0168946	-0.213019	0	0	0.0909099	-0.170142	-0.303383	0.968264	-0.112173	0	0	-0.465145	0.0372029	-0.209539	-0.0298798	-0.458573	0.671238	0.802051	0.802997	0	0	-0.392819	-0.293699	-0.127802	1.02417	1.5708	0	0
0.03	-0.067667	1.28434	-1.43679	0.747371	1.88769	0.9602	-0.446681	0.0767453	-0.206468	0.00874527	-0.208282	0	0	0.0981761	-0.171657	-0.331824	0.925264	-0.124626	0	0	-0.46581	0.0348801	-0.205592	-0.032801	-0.457641	0.663242	0.804038	0.809039	0	0	-0.396907	-0.291234	-0.134223	1.02481	1.5708	0	0
0.04	-0.0706395	1.28353	-1.4386	0.746828	1.87791	0.959077	-0.463195	0.0773976	-0.198892	0.00192977	-0.198484	0	0	0.102637	-0.185274	-0.389211	0.888372	-0.146596	0	0	-0.466553	0.0328187	-0.20025	-0.0370357	-0.457092	0.653597	0.806758	0.816759	0	0	-0.401679	-0.288661	-0.140108	1.02605	1.5708	0	0
0.05	-0.0723661	1.28627	-1.43926	0.746593	1.86818	0.957769	-0.472659	0.0777091	-0.202437	0.001859	-0.185495	0	0	0.110122	-0.190267	-0.430226	0.84796	-0.15992	0	0	-0.463379	0.0309753	-0.19714	-0.0398356	-0.455069	0.645922	0.805545	0.822761	0	0	-0.404352	-0.286982	-0.14363	1.02313	1.5708	0	0
0.06	-0.038504	1.32387	-1.48549	0.745224	1.8586	0.952206	-0.400524	0.0527095	-0.195505	0.0664446	-0.158325	0	0	0.156691	-0.17409	-0.457852	0.813124	-0.161519	0	0	-0.423273	0.0099764	-0.190475	-0.0386713	-0.453224	0.65824	0.798348	0.805497	0	0	-0.421209	-0.291148	-0.145946	1.03637	1.55942	0	0
0.07	-0.0441148	1.33358	-1.48091	0.744994	1.84896	0.950374	-0.39464	0.0572905	-0.200773	0.0729972	-0.149667	0	0	0.171492	-0.170684	-0.477162	0.769094	-0.164753	0	0	-0.412815	0.00916991	-0.189292	-0.0367545	-0.451232	0.662096	0.792386	0.801748	0	0	-0.421947	-0.28945	-0.148873	1.02888	1.55325	0	0
0.08	-0.0932382	1.38791	-1.43445	0.74584	1.83597	0.946578	-0.346546	0.0601877	-0.198034	0.0789988	-0.138835	0	0	0.231568	-0.167328	-0.490748	0.72362	-0.16652	0	0	-0.340232	0.01355	-0.177349	-0.0444014	-0.437624	0.662759	0.747064	0.808937	0	0	-0.398356	-0.271947	-0.144143	0.957096	1.5708	0	0
0.09	-0.0412199	1.31339	-1.48049	0.745256	1.83216	0.947918	-0.436832	0.0611666	-0.215149	0.0759207	-0.129967	0	0	0.15659	-0.160218	-0.508952	0.679317	-0.164831	0	0	-0.441516	0.0115732	-0.195925	-0.0336461	-0.462036	0.659814	0.820541	0.796594	0	0	-0.42133	-0.283666	-0.168701	1.02688	1.56525	0	0
0.1	-0.086708	1.34804	-1.43754	0.746853	1.82064	0.945126	-0.408529	0.0661735	-0.210536	0.0810989	-0.124866	0	0	0.193359	-0.156567	-0.517517	0.631431	-0.161527	0	0	-0.397145	0.0226241	-0.188708	-0.0350269	-0.462754	0.667239	0.800469	0.788919	0	0	-0.408035	-0.270039	-0.166112	0.984135	1.5708	0	0
0.11	-0.0967155	1.36517	-1.4255	0.747448	1.81046	0.943019	-0.403275	0.065595	-0.210134	0.0789876	-0.119714	0	0	0.210172	-0.144435	-0.517915	0.581389	-0.156864	0	0	-0.368572	0.0266723	-0.16601	-0.0817785	-0.446507	0.570323	0.800845	0.861232	0	0	-0.381472	-0.288884	-0.108034	0.947569	1.54458	0	0
0.12	-0.0794957	1.30121	-1.42185	0.74819	1.80341	0.946555	-0.523599	0.0865905	-0.230943	0.0110466	-0.131457	0	0	0.140125	-0.140071	-0.512845	0.53185	-0.152635	0	0	-0.43904	0.0409232	-0.182499	-0.0791042	-0.460655	0.574423	0.837489	0.84567	0	0	-0.380387	-0.298954	-0.109116	0.964886	1.5414	0	0
0.13	-0.0945818	1.31099	-1.40667	0.749464	1.79345	0.94494	-0.523599	0.0879148	-0.235281	0.016877	-0.133682	0	0	0.143008	-0.12433	-0.495352	0.474191	-0.137582	0	0	-0.449308	0.030389	-0.195561	-0.0469773	-0.447484	0.607191	0.805701	0.831508	0	0	-0.404168	-0.283086	-0.162298	0.996046	1.56905	0	0
0.14	-0.0837075	1.30962	-1.41493	0.749962	1.78427	0.943682	-0.523599	0.0852705	-0.257924	0.0372246	-0.121501	0	0	0.130893	-0.102636	-0.465814	0.411255	-0.128357	0	0	-0.452473	0.0320596	-0.195449	-0.0552005	-0.450722	0.591073	0.819431	0.834164	0	0	-0.396305	-0.289651	-0.147951	0.983481	1.56537	0	0
0.15	-0.0619039	1.30013	-1.434	0.749603	1.77555	0.942718	-0.523599	0.0818634	-0.271558	0.0512931	-0.117656	0	0	0.112155	-0.0857711	-0.446662	0.36316	-0.123334	0	0	-0.442023	0.0292299	-0.183003	-0.0703805	-0.451667	0.581791	0.820033	0.838178	0	0	-0.381731	-0.294335	-0.134817	0.964448	1.56767	0	0
